<svg xmlns="http://www.w3.org/2000/svg" width="48" height="48" viewBox="0 0 48 48" fill="none">
  <defs>
    <linearGradient id="roomlyGrad" x1="6" y1="4" x2="42" y2="44" gradientUnits="userSpaceOnUse">
      <stop offset="0" stop-color="#c9a6ff"/>
      <stop offset="0.5" stop-color="#8b3bff"/>
      <stop offset="1" stop-color="#5a12c9"/>
    </linearGradient>
  </defs>
  <rect width="48" height="48" rx="10" fill="#1b0f33"/>
  <path fill="url(#roomlyGrad)" d="M14 10h13.5c5 0 8.5 3.3 8.5 8.1 0 3.6-2 6.3-5.1 7.5L37 38h-6.6l-5.5-11.2H19.6V38H14V10zm5.6 4.7v7.7h6.9c2.7 0 4.5-1.5 4.5-3.9 0-2.4-1.8-3.8-4.5-3.8h-6.9z"/>
  <path fill="url(#roomlyGrad)" d="M12 22.5 22.5 13l10.5 9.5v1.8L22.5 15.6 12 24.3z" opacity="0.9"/>
  <rect x="18.5" y="30" width="3" height="3" fill="url(#roomlyGrad)"/>
  <rect x="23" y="30" width="3" height="3" fill="url(#roomlyGrad)"/>
</svg>
